<svg xmlns="http://www.w3.org/2000/svg" viewBox="0 0 208.83 80.5"><defs><style>.cls-1,.cls-2{fill:none;stroke:#d41459;}.cls-1{stroke-miterlimit:10;}.cls-2{stroke-linecap:round;stroke-linejoin:round;stroke-width:3px;}.cls-3{fill:#d41459;}</style></defs><title>Asset 4</title><g id="Layer_2" data-name="Layer 2"><g id="Layer_1-2" data-name="Layer 1"><polygon class="cls-1" points="58.82 31.72 46.69 31.72 46.69 19.6 33.58 19.6 33.58 31.72 21.45 31.72 21.45 44.84 33.58 44.84 33.58 56.97 46.69 56.97 46.69 44.84 58.82 44.84 58.82 31.72"/><path class="cls-2" d="M168.58,1.5a38.75,38.75,0,0,1,0,77.5c-12.13,0-23.39-5.21-30.5-13.93"/><path class="cls-2" d="M70,65.07A38.75,38.75,0,1,1,40.25,1.5"/><line class="cls-2" x1="40.25" y1="1.5" x2="168.58" y2="1.5"/><line class="cls-2" x1="70" y1="65.07" x2="138.08" y2="65.07"/><circle class="cls-2" cx="168.58" cy="40.25" r="28.46"/><polygon class="cls-2" points="58.75 32.83 46.69 32.83 46.69 20.77 33.02 20.77 33.02 32.83 20.96 32.83 20.96 46.5 33.02 46.5 33.02 58.56 46.69 58.56 46.69 46.5 58.75 46.5 58.75 32.83"/><rect class="cls-2" x="169.55" y="34.86" width="12.34" height="23.91" rx="6.17" ry="6.17" transform="translate(103.72 -120.17) rotate(51.75)"/><rect class="cls-2" x="107.66" y="37.44" width="6.46" height="17.85" rx="3.23" ry="3.23" transform="translate(78.66 -69.42) rotate(51.75)"/><rect class="cls-2" x="86.55" y="37.44" width="6.46" height="17.85" rx="3.23" ry="3.23" transform="translate(70.62 -52.84) rotate(51.75)"/><rect class="cls-2" x="157.23" y="20.68" width="12.34" height="23.91" rx="6.17" ry="6.17" transform="translate(87.88 -115.9) rotate(51.75)"/><path class="cls-3" d="M180.08,41.1a2.29,2.29,0,0,0-1.57,3.95,2.31,2.31,0,0,0,1.57.62,2.29,2.29,0,0,0,1.56-4,2.29,2.29,0,0,0-1.56-.62Z"/><path class="cls-3" d="M172.51,47.06a2.29,2.29,0,1,0,2.29,2.29,2.29,2.29,0,0,0-2.29-2.29Z"/><path class="cls-3" d="M167.36,27.23a2.29,2.29,0,0,0-1.56,3.95,2.27,2.27,0,0,0,3.22-.1,2.29,2.29,0,0,0-1.66-3.85Z"/><path class="cls-3" d="M159.8,33.2a2.28,2.28,0,1,0,2.28,2.28,2.29,2.29,0,0,0-2.28-2.28Z"/></g></g></svg>