<svg xmlns="http://www.w3.org/2000/svg" viewBox="0 0 166.82 114.22"><defs><style>.cls-1{fill:none;stroke:#d41459;stroke-linecap:round;stroke-linejoin:round;stroke-width:3px;}</style></defs><title>Hardware Icon</title><g id="Layer_2" data-name="Layer 2"><g id="Layer_1-2" data-name="Layer 1"><g id="Hardware_Icon" data-name="Hardware Icon"><path class="cls-1" d="M149.23,8.4h8.58a7.51,7.51,0,0,1,7.51,7.51v89.3a7.52,7.52,0,0,1-7.51,7.51H9a7.51,7.51,0,0,1-7.51-7.51V15.91A7.51,7.51,0,0,1,9,8.4H62.86"/><line class="cls-1" x1="125.14" y1="8.4" x2="135.14" y2="8.4"/><line class="cls-1" x1="101.04" y1="8.4" x2="111.04" y2="8.4"/><line class="cls-1" x1="76.95" y1="8.4" x2="86.95" y2="8.4"/><rect class="cls-1" x="62.86" y="1.5" width="14.09" height="14.09"/><rect class="cls-1" x="86.95" y="1.5" width="14.09" height="14.09"/><rect class="cls-1" x="111.04" y="1.5" width="14.09" height="14.09"/><rect class="cls-1" x="135.14" y="1.5" width="14.09" height="14.09"/><line class="cls-1" x1="51.5" y1="68.98" x2="43.37" y2="68.98"/><line class="cls-1" x1="51.5" y1="77.3" x2="43.37" y2="77.3"/><line class="cls-1" x1="51.5" y1="85.62" x2="43.37" y2="85.62"/><rect class="cls-1" x="17.59" y="62.38" width="29.85" height="29.85"/><rect class="cls-1" x="62.86" y="62.38" width="86.37" height="29.85"/><rect class="cls-1" x="17.59" y="32.89" width="107.55" height="14.09"/><line class="cls-1" x1="78.77" y1="68.98" x2="70.65" y2="68.98"/><line class="cls-1" x1="78.77" y1="85.62" x2="70.65" y2="85.62"/><line class="cls-1" x1="97.9" y1="68.98" x2="89.77" y2="68.98"/><line class="cls-1" x1="97.9" y1="85.62" x2="89.77" y2="85.62"/><line class="cls-1" x1="117.02" y1="68.98" x2="108.9" y2="68.98"/><line class="cls-1" x1="117.02" y1="85.62" x2="108.9" y2="85.62"/><rect class="cls-1" x="128.31" y="68.98" width="13.14" height="16.63"/><rect class="cls-1" x="135.14" y="32.89" width="14.09" height="14.09" rx="7.05" ry="7.05"/></g></g></g></svg>