<svg xmlns="http://www.w3.org/2000/svg" viewBox="0 0 166.82 122.33"><defs><style>.cls-1{fill:none;stroke:#d41459;stroke-linecap:round;stroke-linejoin:round;stroke-width:3px;}</style></defs><title>Asset 3</title><g id="Layer_2" data-name="Layer 2"><g id="Layer_1-2" data-name="Layer 1"><path class="cls-1" d="M22.06,1.5H144.75A7.51,7.51,0,0,1,152.26,9v7.51a0,0,0,0,1,0,0H14.56a0,0,0,0,1,0,0V9A7.51,7.51,0,0,1,22.06,1.5Z"/><path class="cls-1" d="M157.81,120.83H107.44a7.51,7.51,0,0,1-6.24-3.34L89.67,95.19a7.51,7.51,0,0,0-12.5,0L65.71,117.47a7.5,7.5,0,0,1-6.25,3.36H9a7.51,7.51,0,0,1-7.51-7.51V24A7.51,7.51,0,0,1,9,16.51h148.8A7.51,7.51,0,0,1,165.32,24v89.3A7.51,7.51,0,0,1,157.81,120.83Z"/><circle class="cls-1" cx="122.28" cy="70.97" r="19.84"/><circle class="cls-1" cx="44.21" cy="70.97" r="19.84"/></g></g></svg>