<svg xmlns="http://www.w3.org/2000/svg" viewBox="0 0 131.08 131.08"><defs><style>.cls-1{fill:none;stroke:#CA3333;stroke-linecap:round;stroke-linejoin:round;stroke-width:3px;}.cls-2{fill:#CA3333;}</style></defs><title>Asset 2</title><g id="Layer_2" data-name="Layer 2"><g id="Layer_1-2" data-name="Layer 1"><rect class="cls-1" x="21.02" y="21.02" width="89.03" height="89.03" rx="10.84" ry="10.84"/><path class="cls-1" d="M30.28,21V6.34A4.84,4.84,0,0,1,35.12,1.5h0A4.84,4.84,0,0,1,40,6.34V21"/><path class="cls-2" d="M60.77,47.4H55.1L42.74,83.79H47.6l3.78-11.44h12.9l3.89,11.44h5L60.77,47.4ZM52.35,68.68l3.56-10.53c.7-2.21,1.3-4.43,1.84-6.59h.11c.53,2.11,1.07,4.27,1.88,6.64l3.57,10.48Z"/><polygon class="cls-2" points="83.22 47.41 78.53 47.41 78.53 83.79 83.22 83.79 83.22 47.41 83.22 47.41"/><path class="cls-1" d="M50,21V6.34A4.84,4.84,0,0,1,54.88,1.5h0a4.84,4.84,0,0,1,4.84,4.84V21"/><path class="cls-1" d="M69.81,21V6.34A4.84,4.84,0,0,1,74.65,1.5h0a4.84,4.84,0,0,1,4.84,4.84V21"/><path class="cls-1" d="M89.57,21V6.34A4.84,4.84,0,0,1,94.41,1.5h0a4.84,4.84,0,0,1,4.84,4.84V21"/><path class="cls-1" d="M21,100H6.34A4.84,4.84,0,0,1,1.5,95.18h0a4.84,4.84,0,0,1,4.84-4.84H21"/><path class="cls-1" d="M21,80.26H6.34A4.84,4.84,0,0,1,1.5,75.42h0a4.84,4.84,0,0,1,4.84-4.84H21"/><path class="cls-1" d="M21,60.5H6.34A4.84,4.84,0,0,1,1.5,55.66h0a4.84,4.84,0,0,1,4.84-4.84H21"/><path class="cls-1" d="M21,40.74H6.34A4.84,4.84,0,0,1,1.5,35.9h0a4.84,4.84,0,0,1,4.84-4.84H21"/><path class="cls-1" d="M98.84,110.06v14.68A4.84,4.84,0,0,1,94,129.58h0a4.84,4.84,0,0,1-4.84-4.84V110.06"/><path class="cls-1" d="M79.08,110.06v14.68a4.84,4.84,0,0,1-4.84,4.84h0a4.84,4.84,0,0,1-4.84-4.84V110.06"/><path class="cls-1" d="M59.32,110.06v14.68a4.84,4.84,0,0,1-4.84,4.84h0a4.84,4.84,0,0,1-4.84-4.84V110.06"/><path class="cls-1" d="M39.56,110.06v14.68a4.84,4.84,0,0,1-4.84,4.84h0a4.84,4.84,0,0,1-4.84-4.84V110.06"/><path class="cls-1" d="M110.06,31.06h14.68a4.84,4.84,0,0,1,4.84,4.84h0a4.84,4.84,0,0,1-4.84,4.84H110.06"/><path class="cls-1" d="M110.06,50.82h14.68a4.84,4.84,0,0,1,4.84,4.84h0a4.84,4.84,0,0,1-4.84,4.84H110.06"/><path class="cls-1" d="M110.06,70.58h14.68a4.84,4.84,0,0,1,4.84,4.84h0a4.84,4.84,0,0,1-4.84,4.84H110.06"/><path class="cls-1" d="M110.06,90.34h14.68a4.84,4.84,0,0,1,4.84,4.84h0a4.84,4.84,0,0,1-4.84,4.84H110.06"/></g></g></svg>