<svg xmlns="http://www.w3.org/2000/svg" viewBox="0 0 124.47 137.78"><defs><style>.cls-1{fill:none;stroke:#CA3333;stroke-linecap:round;stroke-linejoin:round;stroke-width:3px;}.cls-2{fill:#CA3333;}</style></defs><title>Asset 7</title><g id="Layer_2" data-name="Layer 2"><g id="Layer_1-2" data-name="Layer 1"><path class="cls-1" d="M24.68,46.81h75.1a0,0,0,0,1,0,0v54.3A8.75,8.75,0,0,1,91,109.86H33.43a8.75,8.75,0,0,1-8.75-8.75V46.81A0,0,0,0,1,24.68,46.81Z"/><path class="cls-1" d="M62.23,6.74a40.08,40.08,0,0,0-39.1,31.31h78.2A40.08,40.08,0,0,0,62.23,6.74Z"/><rect class="cls-1" x="1.5" y="46.81" width="15.43" height="48.11" rx="7.71" ry="7.71"/><rect class="cls-1" x="107.54" y="46.81" width="15.43" height="48.11" rx="7.71" ry="7.71"/><path class="cls-1" d="M85.1,110.06v18.5a7.72,7.72,0,0,1-7.71,7.72h0a7.72,7.72,0,0,1-7.72-7.72v-18.5"/><path class="cls-1" d="M55,110.06v18.5a7.72,7.72,0,0,1-7.71,7.72h0a7.72,7.72,0,0,1-7.71-7.72v-18.5"/><path class="cls-1" d="M41.14,11.55l-3.86-5.7A2.78,2.78,0,0,1,38,2h0a2.79,2.79,0,0,1,3.87.74l3.85,5.71"/><path class="cls-1" d="M82.66,11.55l3.86-5.7A2.79,2.79,0,0,0,85.77,2h0a2.79,2.79,0,0,0-3.87.74L78,8.43"/><path class="cls-2" d="M47.17,21.51a3.6,3.6,0,1,0,3.6,3.6,3.6,3.6,0,0,0-3.6-3.6Z"/><path class="cls-2" d="M77.3,21.51a3.6,3.6,0,1,0,3.6,3.6,3.61,3.61,0,0,0-3.6-3.6Z"/></g></g></svg>