<svg id="Layer_2" data-name="Layer 2" xmlns="http://www.w3.org/2000/svg" viewBox="0 0 32 31.68"><defs><style>.cls-1{fill:#d4145a;}</style></defs><title>MHacksFavicon</title><path class="cls-1" d="M28,29.91h-.11l-6.78-.39A2.25,2.25,0,0,1,19,27.25v-5.2L17,24.23a1.36,1.36,0,0,1-1.94,0L13,22.06v5.2a2.25,2.25,0,0,1-2.08,2.27l-6.78.39a2.06,2.06,0,0,1-1.54-.58,2.18,2.18,0,0,1-.65-1.55V4.09A2.22,2.22,0,0,1,2.6,2.48a2.1,2.1,0,0,1,1.62-.57l6.43.56a2.06,2.06,0,0,1,1.55.93L16,9.35l3.8-5.94a2.06,2.06,0,0,1,1.55-.94l6.43-.56a2.1,2.1,0,0,1,1.62.57,2.22,2.22,0,0,1,.69,1.61V27.77a2.18,2.18,0,0,1-.65,1.55A2.06,2.06,0,0,1,28,29.91Zm-7.18-12.4v9.74a.42.42,0,0,0,.39.42l6.78.39A.28.28,0,0,0,28.2,28a.29.29,0,0,0,.09-.21V4.09a.34.34,0,0,0-.11-.25.32.32,0,0,0-.25-.09l-6.43.56a.28.28,0,0,0-.21.13l-4.16,6.5a1.33,1.33,0,0,1-2.26,0L10.7,4.43a.28.28,0,0,0-.21-.12L4.06,3.75a.31.31,0,0,0-.25.09.34.34,0,0,0-.11.25V27.77a.29.29,0,0,0,.09.21.27.27,0,0,0,.21.08l6.78-.39a.42.42,0,0,0,.39-.42V17.51L16,22.61ZM16.36,9.93h0Z"/></svg>