<svg xmlns="http://www.w3.org/2000/svg" viewBox="0 0 89.28 52.87"><defs><style>.cls-1{fill:none;stroke:#fff;stroke-miterlimit:10;stroke-width:3px;}</style></defs><title>Asset 8</title><g id="Layer_2" data-name="Layer 2"><g id="Layer_1-2" data-name="Layer 1"><path class="cls-1" d="M26.64,16a.89.89,0,0,0,1.49,0L36.31,3.59a2.3,2.3,0,0,1,1.72-1L50.66,1.51a2.41,2.41,0,0,1,2.61,2.4V49.05a2.31,2.31,0,0,1-2.45,2.31l-13.3-.74a2.56,2.56,0,0,1-2.43-2.56V33.82L28,41.07a.89.89,0,0,1-1.28,0l-7.06-7.25V48.06a2.57,2.57,0,0,1-2.43,2.56L4,51.36A2.31,2.31,0,0,1,1.5,49.05V3.91a2.41,2.41,0,0,1,2.61-2.4L16.74,2.58a2.3,2.3,0,0,1,1.72,1Z"/><path class="cls-1" d="M80.31,1.51h5.08A2.39,2.39,0,0,1,87.78,3.9V49a2.39,2.39,0,0,1-2.39,2.39H77.92a0,0,0,0,1,0,0V3.9a2.39,2.39,0,0,1,2.39-2.39Z" transform="translate(165.7 52.87) rotate(-180)"/><path class="cls-1" d="M63.05,1.51h5.08A2.39,2.39,0,0,1,70.52,3.9V49a2.39,2.39,0,0,1-2.39,2.39H60.66a0,0,0,0,1,0,0V3.9a2.39,2.39,0,0,1,2.39-2.39Z" transform="translate(131.19 52.87) rotate(-180)"/></g></g></svg>